<svg width="20" height="20" viewBox="0 0 20 20" fill="none" xmlns="http://www.w3.org/2000/svg">
<path fill-rule="evenodd" clip-rule="evenodd" d="M3.33333 9.16667C3.33333 5.945 5.945 3.33333 9.16667 3.33333C12.3883 3.33333 15 5.945 15 9.16667C15 10.7384 14.3784 12.1649 13.3677 13.2138C13.3392 13.2357 13.3118 13.2597 13.2858 13.2858C13.2597 13.3118 13.2357 13.3392 13.2138 13.3677C12.1649 14.3784 10.7384 15 9.16667 15C5.945 15 3.33333 12.3883 3.33333 9.16667ZM13.8481 15.0266C12.565 16.0529 10.9375 16.6667 9.16667 16.6667C5.02453 16.6667 1.66667 13.3088 1.66667 9.16667C1.66667 5.02453 5.02453 1.66667 9.16667 1.66667C13.3088 1.66667 16.6667 5.02453 16.6667 9.16667C16.6667 10.9375 16.0529 12.565 15.0266 13.8481L18.0893 16.9108C18.4147 17.2362 18.4147 17.7638 18.0893 18.0893C17.7638 18.4147 17.2362 18.4147 16.9108 18.0893L13.8481 15.0266Z" fill="black" style="fill:black;fill-opacity:1;"/>
</svg>
